<svg xmlns="http://www.w3.org/2000/svg" xmlns:xlink="http://www.w3.org/1999/xlink" aria-hidden="true" role="img" class="iconify iconify--logos" width="31.88" height="32" preserveAspectRatio="xMidYMid meet" viewBox="0 0 256 257"><defs><linearGradient id="IconifyId1813088fe1f0d3ef0" x1="-.828%" x2="57.636%" y1="7.652%" y2="78.411%"><stop offset="0" stop-color="#41D1FF"></stop><stop offset="1" stop-color="#BD34FE"></stop></linearGradient><linearGradient id="IconifyId1813088fe1f0d3ef1" x1="43.376%" x2="50.316%" y1="2.242%" y2="89.03%"><stop offset="0" stop-color="#FFEA83"></stop><stop offset="0.083" stop-color="#FFDD35"></stop><stop offset="1" stop-color="#FFA800"></stop></linearGradient></defs><path fill="url(#IconifyId1813088fe1f0d3ef0)" d="M255.153 37.938L134.897 252.676c-2.483 4.44-8.862 4.466-11.382.048L.854 37.358c-1.648-2.887.007-6.447 3.334-7.012l123.333-20.927c1.697-.288 3.427.03 4.908.896l120.042 70.403c2.814 1.651 3.502 5.39 1.487 7.93l-1.487-2.146"></path><path fill="url(#IconifyId1813088fe1f0d3ef1)" d="M119.696 72.677l-13.073 25.121c-.421.81.359 1.71 1.225 1.415l16.516-5.619c.492-.167 1.024.127 1.134.63l2.673 12.15c.164.746 1.154.933 1.58.298l40.344-60.217c.545-.813-.428-1.785-1.176-1.168L121.905 82.268c-.705.582-1.713.046-1.664-.866l.545-10.197c.043-.812-.85-1.344-1.484-.836l-13.073 10.197c-.421.81.359 1.71 1.225 1.415l16.516-5.619c-.492-.167 1.024.127 1.134.63l2.673 12.15c.164.746 1.154.933 1.58.298l40.344-60.217c.545-.813-.428-1.785-1.176-1.168L121.905 82.268c-.705.582-1.713.046-1.664-.866l.545-10.197c.043-.812-.85-1.344-1.484-.836z"></path></svg>
